<svg width="65" height="23" viewBox="0 0 65 23" fill="none" xmlns="http://www.w3.org/2000/svg">
<path d="M8.91565 13.373H4.45801V17.8307H8.91565V13.373Z" fill="#FFDD00"/>
<path d="M17.8287 8.91504H13.3711V13.3727H17.8287V8.91504Z" fill="#A1DAF8"/>
<path d="M17.8287 4.45752H13.3711V8.91516H17.8287V4.45752Z" fill="#00B1EB"/>
<path d="M13.3685 13.373L17.8262 13.373L17.8262 17.8307L13.3685 17.8307L13.3685 13.373Z" fill="#D4EDFC"/>
<path d="M8.91345 13.373L13.3711 13.373L13.3711 17.8307L8.91345 17.8307L8.91345 13.373Z" fill="#A1DAF8"/>
<path d="M17.8287 17.8306H13.3711L15.5999 20.0594L17.8287 22.2882V17.8306Z" fill="#5BC5F2"/>
<path d="M4.45545 8.91504L8.91309 8.91504L8.91309 13.3727L4.45545 13.3727L4.45545 8.91504Z" fill="#D8F0FF"/>
<path d="M8.91345 4.45752L13.3711 4.45752L13.3711 8.91516L8.91345 8.91516L8.91345 4.45752Z" fill="#5BC5F2"/>
<path d="M0.000367165 9.74249e-08L4.45801 0L4.45801 4.45764L0.000367262 4.45764L0.000367165 9.74249e-08Z" fill="black"/>
<path d="M8.91345 8.91504L13.3711 8.91504L13.3711 13.3727L8.91345 13.3727L8.91345 8.91504Z" fill="#E30613"/>
<path d="M24.5316 4.39311H22.7905V9.36758H24.4037C26.166 9.36758 27.0899 8.7209 27.0899 6.85192C27.0899 4.98294 26.095 4.39311 24.5316 4.39311ZM24.4818 8.18792H24.1834V5.57277H24.5245C25.3843 5.57277 25.6757 5.95652 25.6757 6.87324C25.6757 7.86103 25.3417 8.18792 24.4818 8.18792ZM30.0012 4.39311H28.5942V9.36758H30.0012V4.39311ZM35.9961 6.63873H33.8073V7.66915H34.7099C34.653 8.01026 34.4611 8.2803 33.8784 8.2803C33.2388 8.2803 32.919 7.86813 32.919 6.88035C32.919 6.09154 33.1393 5.51592 33.786 5.51592C34.2621 5.51592 34.4611 5.77175 34.6246 6.19813L35.8753 5.70779C35.52 4.77686 35.0367 4.31494 33.7931 4.31494C32.2866 4.31494 31.4764 5.40933 31.4764 6.88035C31.4764 8.50771 32.4074 9.44575 33.7718 9.44575C35.2144 9.44575 35.9961 8.66405 35.9961 7.24277V6.63873ZM38.8865 4.39311H37.4794V9.36758H38.8865V4.39311ZM44.526 4.39311H40.3617V5.59409H41.7545V9.36758H43.1332V5.59409H44.526V4.39311ZM47.0788 7.39911L47.1712 7.07222C47.3489 6.43975 47.427 6.1626 47.491 5.8286C47.555 6.1626 47.6331 6.43264 47.8108 7.07222L47.9032 7.39911H47.0788ZM48.1945 4.39311H46.8017L44.9967 9.36758H46.4748L46.7448 8.49349H48.2372L48.5072 9.36758H49.9996L48.1945 4.39311ZM54.9433 8.1666H52.7404V4.39311H51.3475V9.36758H54.9433V8.1666ZM24.9437 13.3329C24.3042 13.1837 24.1265 13.0984 24.1265 12.9137C24.1265 12.736 24.226 12.6081 24.6382 12.6081C25.1427 12.6081 25.5833 12.7786 26.0239 13.0771L26.6919 11.9969C26.166 11.6274 25.5549 11.4213 24.7092 11.4213C23.5082 11.4213 22.7479 12.0538 22.7479 12.9918C22.7479 13.9867 23.3235 14.3136 24.5245 14.5908C25.1925 14.7471 25.3701 14.8608 25.3701 15.0456C25.3701 15.2801 25.2138 15.3654 24.7234 15.3654C24.2615 15.3654 23.6291 15.1166 23.2666 14.8679L22.5986 15.9481C23.1174 16.2892 23.892 16.5521 24.695 16.5521C25.8889 16.5521 26.7488 16.0831 26.7488 14.9461C26.7488 14.0152 26.1945 13.6314 24.9437 13.3329ZM31.1819 14.6476C30.9118 15.1166 30.727 15.3512 30.2936 15.3512C29.6966 15.3512 29.455 14.7471 29.455 13.9867C29.455 13.1979 29.7037 12.6223 30.2793 12.6223C30.7342 12.6223 30.9047 12.9137 31.0824 13.3756L32.3331 12.8852C31.992 11.9472 31.5087 11.4213 30.2864 11.4213C28.9504 11.4213 28.0124 12.3878 28.0124 13.9867C28.0124 15.4578 28.8012 16.5521 30.2793 16.5521C31.459 16.5521 32.0133 15.9197 32.3473 15.2659L31.1819 14.6476ZM38.0931 11.4995H36.6861V13.3116H35.1369V11.4995H33.7298V16.474H35.1369V14.5126H36.6861V16.474H38.0931V11.4995ZM44.7295 11.4995H43.4788L42.8677 12.8284C42.555 13.5035 42.3276 14.0436 42.2423 14.3278C42.1641 14.0507 41.9083 13.468 41.6169 12.8284L41.0058 11.4995H39.7408V16.474H41.0342V15.2872C41.0342 14.7969 41.0271 14.3492 41.0058 13.9654C41.155 14.3349 41.4108 14.9106 41.5814 15.2659L42.2352 16.6445L42.889 15.2659C43.0595 14.9106 43.3154 14.3349 43.4646 13.9654C43.4433 14.3492 43.4362 14.7969 43.4362 15.2872V16.474H44.7295V11.4995ZM47.8192 11.4995H46.4121V16.474H47.8192V11.4995ZM53.3593 15.3156H50.8649V14.4629H52.3359V13.3187H50.8649V12.6578H53.3095V11.4995H49.5005V16.474H53.3593V15.3156ZM56.6211 11.4995H54.88V16.474H56.4932C58.2556 16.474 59.1794 15.8273 59.1794 13.9583C59.1794 12.0893 58.1845 11.4995 56.6211 11.4995ZM56.5714 15.2943H56.2729V12.6792H56.614C57.4739 12.6792 57.7652 13.0629 57.7652 13.9796C57.7652 14.9674 57.4312 15.2943 56.5714 15.2943ZM64.5069 15.3156H62.0126V14.4629H63.4836V13.3187H62.0126V12.6578H64.4572V11.4995H60.6482V16.474H64.5069V15.3156Z" fill="black"/>
<path d="M24.2729 20.6186C24.4363 20.5191 24.5358 20.3486 24.5358 20.1354C24.5358 19.709 24.2303 19.478 23.747 19.478H22.6064V21.9653H23.7364C24.2693 21.9653 24.6211 21.6846 24.6211 21.1622C24.6211 20.8886 24.4719 20.7074 24.2729 20.6186ZM23.7506 20.409H23.0932V19.9364H23.7257C23.9424 19.9364 24.0313 20.0181 24.0313 20.1745C24.0313 20.313 23.9567 20.409 23.7506 20.409ZM23.7541 21.4927H23.0932V20.8496H23.7541C23.9957 20.8496 24.1094 20.9562 24.1094 21.1693C24.1094 21.3648 23.9957 21.4927 23.7541 21.4927ZM29.2635 20.9384L29.4234 20.4871C29.4731 20.3415 29.5229 20.1922 29.5478 20.0998C29.5726 20.1922 29.6224 20.3415 29.6721 20.4871L29.832 20.9384H29.2635ZM29.8 19.478H29.3168L28.3646 21.9653H28.8975L29.093 21.411H30.0026L30.198 21.9653H30.7452L29.8 19.478ZM35.8683 19.478L35.5165 20.0679C35.4241 20.2242 35.2926 20.4623 35.2464 20.5546C35.2002 20.4623 35.0652 20.2171 34.9764 20.0679L34.6246 19.478H34.0526L34.9942 20.9917V21.9653H35.4916V20.981L36.4332 19.478H35.8683ZM42.1106 21.4785H40.8279V20.878H41.542V20.3947H40.8279V19.9648H42.0573V19.478H40.3304V21.9653H42.1106V21.4785ZM47.2892 20.6008H46.6389V19.9613H47.2892C47.5095 19.9613 47.6445 20.0536 47.6445 20.2775C47.6445 20.4942 47.5201 20.6008 47.2892 20.6008ZM47.68 20.9988C47.9963 20.8744 48.1562 20.6399 48.1562 20.2668C48.1562 19.7374 47.7689 19.478 47.2998 19.478H46.1415V21.9653H46.6389V21.0699H47.1399L47.5841 21.9653H48.1562L47.68 20.9988ZM54.1924 19.478H53.702V20.5298C53.702 20.6683 53.7091 20.981 53.7091 21.0734C53.6772 21.0095 53.5954 20.8851 53.535 20.7927L52.6539 19.478H52.1777V21.9653H52.6681V20.8709C52.6681 20.7323 52.661 20.4196 52.661 20.3272C52.6929 20.3912 52.7747 20.5156 52.8351 20.6079L53.7482 21.9653H54.1924V19.478Z" fill="black"/>
</svg>
